master_6.ufo
<glyph name="dollar" format="2">
  <advance width="5538"/>
  <unicode hex="0024"/>
  <anchor x="2768" y="0" name="bottom"/>
  <anchor x="2768" y="1600" name="top"/>
  <outline>
    <contour>
      <point x="2606" y="-124" type="line"/>
      <point x="2976" y="-124" type="line"/>
      <point x="2976" y="1702" type="line"/>
      <point x="2606" y="1702" type="line"/>
    </contour>
    <component base="S"/>
  </outline>
</glyph>
<glyph name="quotesingle" format="2">
  <advance width="1354"/>
  <unicode hex="0027"/>
  <outline>
    <contour>
      <point x="292" y="684" type="line"/>
      <point x="1063" y="684" type="line"/>
      <point x="1143" y="1600" type="line"/>
      <point x="212" y="1600" type="line"/>
    </contour>
  </outline>
</glyph>
<glyph name="hyphen" format="2">
  <advance width="2817"/>
  <unicode hex="002D"/>
  <outline>
    <contour>
      <point x="340" y="499" type="line"/>
      <point x="2477" y="499" type="line"/>
      <point x="2477" y="901" type="line"/>
      <point x="340" y="901" type="line"/>
    </contour>
  </outline>
</glyph>
<glyph name="two" format="2">
  <advance width="5769"/>
  <unicode hex="0032"/>
  <outline>
    <contour>
      <point x="548" y="0" type="curve" smooth="yes"/>
      <point x="5241" y="0" type="line"/>
      <point x="5241" y="402" type="line"/>
      <point x="1405" y="402" type="line" smooth="yes"/>
      <point x="1414" y="402"/>
      <point x="1418" y="398"/>
      <point x="1418" y="388" type="curve" smooth="yes"/>
      <point x="1418" y="499" type="line" smooth="yes"/>
      <point x="1418" y="490"/>
      <point x="1414" y="485"/>
      <point x="1405" y="485" type="curve" smooth="yes"/>
      <point x="5134" y="482" type="line" smooth="yes"/>
      <point x="5189" y="482"/>
      <point x="5220" y="512"/>
      <point x="5220" y="568" type="curve" smooth="yes"/>
      <point x="5220" y="1514" type="line" smooth="yes"/>
      <point x="5220" y="1568"/>
      <point x="5190" y="1600"/>
      <point x="5134" y="1600" type="curve" smooth="yes"/>
      <point x="626" y="1600" type="line" smooth="yes"/>
      <point x="570" y="1600"/>
      <point x="540" y="1569"/>
      <point x="540" y="1514" type="curve" smooth="yes"/>
      <point x="540" y="1006" type="line"/>
      <point x="1496" y="1006" type="line"/>
      <point x="1496" y="1212" type="line" smooth="yes"/>
      <point x="1496" y="1203"/>
      <point x="1492" y="1198"/>
      <point x="1482" y="1198" type="curve" smooth="yes"/>
      <point x="4278" y="1198" type="line" smooth="yes"/>
      <point x="4268" y="1198"/>
      <point x="4264" y="1202"/>
      <point x="4264" y="1212" type="curve" smooth="yes"/>
      <point x="4264" y="870" type="line" smooth="yes"/>
      <point x="4264" y="879"/>
      <point x="4268" y="884"/>
      <point x="4278" y="884" type="curve" smooth="yes"/>
      <point x="548" y="887" type="line" smooth="yes"/>
      <point x="493" y="887"/>
      <point x="462" y="856"/>
      <point x="462" y="801" type="curve" smooth="yes"/>
      <point x="462" y="86" type="line" smooth="yes"/>
      <point x="462" y="32"/>
      <point x="493" y="0"/>
    </contour>
  </outline>
</glyph>
<glyph name="four" format="2">
  <advance width="5910"/>
  <unicode hex="0034"/>
  <outline>
    <contour>
      <point x="4066" y="0" type="line"/>
      <point x="5022" y="0" type="line"/>
      <point x="5022" y="525" type="line"/>
      <point x="5420" y="525" type="line"/>
      <point x="5420" y="927" type="line"/>
      <point x="5022" y="927" type="line"/>
      <point x="5022" y="1600" type="line"/>
      <point x="4066" y="1600" type="line"/>
      <point x="4066" y="927" type="line"/>
      <point x="1152" y="927" type="line" smooth="yes"/>
      <point x="1098" y="927"/>
      <point x="1070" y="955"/>
      <point x="1070" y="1007" type="curve" smooth="yes"/>
      <point x="1070" y="965" type="line"/>
      <point x="1339" y="1600" type="line"/>
      <point x="383" y="1600" type="line"/>
      <point x="114" y="977" type="line"/>
      <point x="114" y="611" type="line" smooth="yes"/>
      <point x="114" y="557"/>
      <point x="145" y="525"/>
      <point x="200" y="525" type="curve" smooth="yes"/>
      <point x="4066" y="525" type="line"/>
    </contour>
  </outline>
</glyph>
<glyph name="question" format="2">
  <advance width="5105"/>
  <unicode hex="003F"/>
  <outline>
    <contour>
      <point x="1908" y="471" type="line"/>
      <point x="4514" y="471" type="line"/>
      <point x="5232" y="930" type="line"/>
      <point x="5232" y="1600" type="line"/>
      <point x="-22" y="1600" type="line"/>
      <point x="-22" y="1020" type="line"/>
      <point x="933" y="1020" type="line"/>
      <point x="933" y="1100" type="line"/>
      <point x="4276" y="1100" type="line"/>
      <point x="4276" y="1229" type="line"/>
      <point x="4008" y="979" type="line"/>
      <point x="1908" y="979" type="line"/>
    </contour>
    <component base="period" xOffset="1965"/>
  </outline>
</glyph>
<glyph name="C" format="2">
  <advance width="6558"/>
  <unicode hex="0043"/>
  <anchor x="3641" y="0" name="bottom"/>
  <anchor x="3641" y="1600" name="top"/>
  <outline>
    <contour>
      <point x="664" y="0" type="curve" smooth="yes"/>
      <point x="5981" y="0" type="line" smooth="yes"/>
      <point x="6024" y="0"/>
      <point x="6046" y="23"/>
      <point x="6046" y="63" type="curve" smooth="yes"/>
      <point x="6046" y="597" type="line"/>
      <point x="5101" y="597" type="line"/>
      <point x="5101" y="542" type="line" smooth="yes"/>
      <point x="5101" y="508"/>
      <point x="5081" y="487"/>
      <point x="5046" y="487" type="curve" smooth="yes"/>
      <point x="1613" y="487" type="line" smooth="yes"/>
      <point x="1579" y="487"/>
      <point x="1558" y="507"/>
      <point x="1558" y="542" type="curve" smooth="yes"/>
      <point x="1558" y="747" type="line" smooth="yes"/>
      <point x="1558" y="771"/>
      <point x="1563" y="798"/>
      <point x="1586" y="815" type="curve" smooth="yes"/>
      <point x="1839" y="1085" type="line" smooth="yes"/>
      <point x="1861" y="1099"/>
      <point x="1881" y="1113"/>
      <point x="1906" y="1113" type="curve" smooth="yes"/>
      <point x="5041" y="1113" type="line" smooth="yes"/>
      <point x="5072" y="1113"/>
      <point x="5097" y="1093"/>
      <point x="5097" y="1058" type="curve" smooth="yes"/>
      <point x="5097" y="903" type="line"/>
      <point x="6042" y="903" type="line"/>
      <point x="6042" y="1535" type="line" smooth="yes"/>
      <point x="6042" y="1578"/>
      <point x="6022" y="1600"/>
      <point x="5978" y="1600" type="curve" smooth="yes"/>
      <point x="1256" y="1600" type="line" smooth="yes"/>
      <point x="1221" y="1600"/>
      <point x="1200" y="1590"/>
      <point x="1177" y="1567" type="curve" smooth="yes"/>
      <point x="631" y="1129" type="line" smooth="yes"/>
      <point x="611" y="1119"/>
      <point x="602" y="1096"/>
      <point x="602" y="1068" type="curve" smooth="yes"/>
      <point x="602" y="60" type="line" smooth="yes"/>
      <point x="602" y="23"/>
      <point x="623" y="0"/>
    </contour>
  </outline>
</glyph>
<glyph name="E" format="2">
  <advance width="5421"/>
  <unicode hex="0045"/>
  <anchor x="3151" y="0" name="bottom"/>
  <anchor x="5102" y="10" name="ogonek"/>
  <anchor x="3151" y="1600" name="top"/>
  <anchor x="733" y="1600" name="topleft"/>
  <outline>
    <contour>
      <point x="714" y="0" type="curve" smooth="yes"/>
      <point x="4795" y="0" type="line"/>
      <point x="4795" y="487" type="line"/>
      <point x="1652" y="487" type="line" smooth="yes"/>
      <point x="1617" y="487"/>
      <point x="1595" y="508"/>
      <point x="1595" y="543" type="curve" smooth="yes"/>
      <point x="1595" y="555" type="line"/>
      <point x="4210" y="555" type="line"/>
      <point x="4210" y="1045" type="line"/>
      <point x="1595" y="1045" type="line"/>
      <point x="1595" y="1056" type="line" smooth="yes"/>
      <point x="1595" y="1091"/>
      <point x="1616" y="1113"/>
      <point x="1652" y="1113" type="curve" smooth="yes"/>
      <point x="4794" y="1113" type="line"/>
      <point x="4794" y="1600" type="line"/>
      <point x="714" y="1600" type="line" smooth="yes"/>
      <point x="667" y="1600"/>
      <point x="640" y="1573"/>
      <point x="640" y="1526" type="curve" smooth="yes"/>
      <point x="640" y="74" type="line" smooth="yes"/>
      <point x="640" y="27"/>
      <point x="667" y="0"/>
    </contour>
  </outline>
</glyph>
<glyph name="J" format="2">
  <advance width="6239"/>
  <unicode hex="004A"/>
  <anchor x="3382" y="0" name="bottom"/>
  <anchor x="3382" y="1600" name="top"/>
  <outline>
    <contour>
      <point x="570" y="0" type="curve" smooth="yes"/>
      <point x="4974" y="0" type="line" smooth="yes"/>
      <point x="5024" y="0"/>
      <point x="5051" y="10"/>
      <point x="5083" y="46" type="curve" smooth="yes"/>
      <point x="5596" y="480" type="line" smooth="yes"/>
      <point x="5625" y="511"/>
      <point x="5637" y="538"/>
      <point x="5637" y="578" type="curve" smooth="yes"/>
      <point x="5636" y="1526" type="line" smooth="yes"/>
      <point x="5636" y="1572"/>
      <point x="5610" y="1600"/>
      <point x="5562" y="1600" type="curve" smooth="yes"/>
      <point x="2436" y="1600" type="line"/>
      <point x="2441" y="1110" type="line"/>
      <point x="4624" y="1110" type="line" smooth="yes"/>
      <point x="4659" y="1110"/>
      <point x="4681" y="1089"/>
      <point x="4681" y="1053" type="curve" smooth="yes"/>
      <point x="4681" y="972" type="line" smooth="yes"/>
      <point x="4681" y="943"/>
      <point x="4674" y="925"/>
      <point x="4652" y="906" type="curve" smooth="yes"/>
      <point x="4211" y="516" type="line" smooth="yes"/>
      <point x="4189" y="495"/>
      <point x="4169" y="487"/>
      <point x="4140" y="487" type="curve" smooth="yes"/>
      <point x="1508" y="487" type="line" smooth="yes"/>
      <point x="1473" y="487"/>
      <point x="1452" y="507"/>
      <point x="1452" y="543" type="curve" smooth="yes"/>
      <point x="1452" y="794" type="line"/>
      <point x="496" y="794" type="line"/>
      <point x="496" y="74" type="line" smooth="yes"/>
      <point x="496" y="28"/>
      <point x="522" y="0"/>
    </contour>
  </outline>
</glyph>
<glyph name="T" format="2">
  <advance width="4877"/>
  <unicode hex="0054"/>
  <anchor x="2807" y="0" name="bottom"/>
  <anchor x="2803" y="800" name="center"/>
  <anchor x="2803" y="1600" name="top"/>
  <outline>
    <contour>
      <point x="1961" y="0" type="line"/>
      <point x="2917" y="0" type="line"/>
      <point x="2917" y="1083" type="line"/>
      <point x="4799" y="1083" type="line"/>
      <point x="4799" y="1600" type="line"/>
      <point x="78" y="1600" type="line"/>
      <point x="78" y="1083" type="line"/>
      <point x="1961" y="1083" type="line"/>
    </contour>
  </outline>
</glyph>
<glyph name="X" format="2">
  <advance width="6372"/>
  <unicode hex="0058"/>
  <outline>
    <contour>
      <point x="2871" y="467" type="line"/>
      <point x="4904" y="467" type="line" smooth="yes"/>
      <point x="4946" y="467"/>
      <point x="4966" y="446"/>
      <point x="4966" y="403" type="curve" smooth="yes"/>
      <point x="4966" y="0" type="line"/>
      <point x="5922" y="0" type="line"/>
      <point x="5922" y="724" type="line" smooth="yes"/>
      <point x="5922" y="765"/>
      <point x="5899" y="789"/>
      <point x="5856" y="789" type="curve" smooth="yes"/>
      <point x="4437" y="789" type="line"/>
      <point x="5800" y="1058" type="line" smooth="yes"/>
      <point x="5840" y="1067"/>
      <point x="5858" y="1091"/>
      <point x="5858" y="1130" type="curve" smooth="yes"/>
      <point x="5858" y="1600" type="line"/>
      <point x="4902" y="1600" type="line"/>
      <point x="4902" y="1447" type="line" smooth="yes"/>
      <point x="4902" y="1410"/>
      <point x="4883" y="1385"/>
      <point x="4848" y="1376" type="curve" smooth="yes"/>
      <point x="3567" y="1147" type="line"/>
      <point x="1601" y="1147" type="line" smooth="yes"/>
      <point x="1562" y="1147"/>
      <point x="1540" y="1168"/>
      <point x="1540" y="1212" type="curve" smooth="yes"/>
      <point x="1540" y="1600" type="line"/>
      <point x="585" y="1600" type="line"/>
      <point x="585" y="880" type="line" smooth="yes"/>
      <point x="585" y="839"/>
      <point x="608" y="815"/>
      <point x="650" y="815" type="curve" smooth="yes"/>
      <point x="1994" y="815" type="line"/>
      <point x="572" y="543" type="line" smooth="yes"/>
      <point x="533" y="535"/>
      <point x="515" y="510"/>
      <point x="515" y="471" type="curve" smooth="yes"/>
      <point x="515" y="0" type="line"/>
      <point x="1470" y="0" type="line"/>
      <point x="1470" y="163" type="line" smooth="yes"/>
      <point x="1470" y="200"/>
      <point x="1488" y="226"/>
      <point x="1525" y="235" type="curve" smooth="yes"/>
    </contour>
  </outline>
</glyph>
<glyph name="Z" format="2">
  <advance width="5393"/>
  <unicode hex="005A"/>
  <anchor x="3348" y="0" name="bottom"/>
  <anchor x="3348" y="800" name="center"/>
  <anchor x="3348" y="1600" name="top"/>
  <outline>
    <contour>
      <point x="235" y="0" type="curve" smooth="yes"/>
      <point x="5154" y="0" type="line" smooth="yes"/>
      <point x="5194" y="0"/>
      <point x="5216" y="22"/>
      <point x="5216" y="62" type="curve" smooth="yes"/>
      <point x="5216" y="706" type="line"/>
      <point x="4308" y="706" type="line"/>
      <point x="4310" y="440" type="line" smooth="yes"/>
      <point x="4310" y="401"/>
      <point x="4287" y="378"/>
      <point x="4247" y="378" type="curve" smooth="yes"/>
      <point x="1190" y="378" type="line" smooth="yes"/>
      <point x="1150" y="378"/>
      <point x="1128" y="339"/>
      <point x="1128" y="281" type="curve" smooth="yes"/>
      <point x="1128" y="9" type="line" smooth="yes"/>
      <point x="1128" y="-57"/>
      <point x="1138" y="75"/>
      <point x="1175" y="82" type="curve" smooth="yes"/>
      <point x="5150" y="944" type="line" smooth="yes"/>
      <point x="5183" y="949"/>
      <point x="5198" y="979"/>
      <point x="5198" y="1014" type="curve" smooth="yes"/>
      <point x="5198" y="1538" type="line" smooth="yes"/>
      <point x="5198" y="1578"/>
      <point x="5176" y="1600"/>
      <point x="5136" y="1600" type="curve" smooth="yes"/>
      <point x="262" y="1600" type="line" smooth="yes"/>
      <point x="223" y="1600"/>
      <point x="200" y="1578"/>
      <point x="200" y="1538" type="curve" smooth="yes"/>
      <point x="200" y="1064" type="line"/>
      <point x="1091" y="1064" type="line"/>
      <point x="1091" y="1160" type="line" smooth="yes"/>
      <point x="1091" y="1199"/>
      <point x="1113" y="1222"/>
      <point x="1153" y="1222" type="curve" smooth="yes"/>
      <point x="4185" y="1222" type="line" smooth="yes"/>
      <point x="4225" y="1222"/>
      <point x="4248" y="1260"/>
      <point x="4248" y="1323" type="curve" smooth="yes"/>
      <point x="4248" y="1598" type="line" smooth="yes"/>
      <point x="4248" y="1654"/>
      <point x="4231" y="1536"/>
      <point x="4200" y="1531" type="curve" smooth="yes"/>
      <point x="221" y="630" type="line" smooth="yes"/>
      <point x="189" y="625"/>
      <point x="173" y="595"/>
      <point x="173" y="560" type="curve" smooth="yes"/>
      <point x="173" y="62" type="line" smooth="yes"/>
      <point x="173" y="23"/>
      <point x="196" y="0"/>
    </contour>
  </outline>
</glyph>
<glyph name="bracketleft" format="2">
  <advance width="2519"/>
  <unicode hex="005B"/>
  <outline>
    <contour>
      <point x="498" y="-200" type="line"/>
      <point x="2392" y="-200" type="line"/>
      <point x="2392" y="410" type="line"/>
      <point x="1428" y="410" type="line"/>
      <point x="1428" y="1190" type="line"/>
      <point x="2397" y="1190" type="line"/>
      <point x="2397" y="1800" type="line"/>
      <point x="498" y="1800" type="line"/>
    </contour>
  </outline>
</glyph>
<glyph name="a" format="2">
  <advance width="5142"/>
  <unicode hex="0061"/>
  <anchor x="3100" y="0" name="bottom"/>
  <anchor x="4762" y="10" name="ogonek"/>
  <anchor x="3100" y="1200" name="top"/>
  <outline>
    <contour>
      <point x="459" y="0" type="curve" smooth="yes"/>
      <point x="3486" y="0" type="line" smooth="yes"/>
      <point x="3514" y="0"/>
      <point x="3534" y="11"/>
      <point x="3554" y="29" type="curve" smooth="yes"/>
      <point x="4100" y="484" type="line"/>
      <point x="3836" y="484" type="line"/>
      <point x="3836" y="0" type="line"/>
      <point x="4739" y="0" type="line"/>
      <point x="4739" y="1124" type="line" smooth="yes"/>
      <point x="4739" y="1172"/>
      <point x="4711" y="1200"/>
      <point x="4662" y="1200" type="curve" smooth="yes"/>
      <point x="1160" y="1200" type="line" smooth="yes"/>
      <point x="1119" y="1200"/>
      <point x="1095" y="1185"/>
      <point x="1069" y="1153" type="curve" smooth="yes"/>
      <point x="413" y="561" type="line" smooth="yes"/>
      <point x="390" y="538"/>
      <point x="383" y="511"/>
      <point x="383" y="478" type="curve" smooth="yes"/>
      <point x="383" y="76" type="line" smooth="yes"/>
      <point x="383" y="28"/>
      <point x="410" y="0"/>
    </contour>
    <contour>
      <point x="1273" y="456" type="curve" smooth="yes"/>
      <point x="1273" y="153" type="line" smooth="yes"/>
      <point x="1273" y="197"/>
      <point x="1290" y="224"/>
      <point x="1393" y="314" type="curve" smooth="yes"/>
      <point x="1923" y="770" type="line" smooth="yes"/>
      <point x="1946" y="789"/>
      <point x="1964" y="798"/>
      <point x="1992" y="798" type="curve" smooth="yes"/>
      <point x="3780" y="798" type="line" smooth="yes"/>
      <point x="3852" y="798"/>
      <point x="3816" y="807"/>
      <point x="3825" y="820" type="curve" smooth="yes"/>
      <point x="3836" y="820" type="line"/>
      <point x="3389" y="431" type="line" smooth="yes"/>
      <point x="3367" y="414"/>
      <point x="3348" y="402"/>
      <point x="3321" y="402" type="curve" smooth="yes"/>
      <point x="1328" y="402" type="line" smooth="yes"/>
      <point x="1293" y="402"/>
      <point x="1273" y="519"/>
    </contour>
  </outline>
</glyph>
<glyph name="b" format="2">
  <advance width="5337"/>
  <unicode hex="0062"/>
  <outline>
    <contour>
      <point x="495" y="91" type="curve" smooth="yes"/>
      <point x="495" y="1600" type="line"/>
      <point x="1451" y="1600" type="line"/>
      <point x="1451" y="384" type="line" smooth="yes"/>
      <point x="1451" y="395"/>
      <point x="1445" y="402"/>
      <point x="1433" y="402" type="curve" smooth="yes"/>
      <point x="3694" y="402" type="line" smooth="yes"/>
      <point x="3684" y="402"/>
      <point x="3676" y="400"/>
      <point x="3672" y="394" type="curve" smooth="yes"/>
      <point x="4007" y="605" type="line" smooth="yes"/>
      <point x="4003" y="600"/>
      <point x="4005" y="597"/>
      <point x="4005" y="591" type="curve" smooth="yes"/>
      <point x="4005" y="815" type="line" smooth="yes"/>
      <point x="4005" y="803"/>
      <point x="4011" y="798"/>
      <point x="4023" y="798" type="curve" smooth="yes"/>
      <point x="1634" y="798" type="line" smooth="yes"/>
      <point x="1642" y="798"/>
      <point x="1645" y="802"/>
      <point x="1651" y="805" type="curve" smooth="yes"/>
      <point x="1450" y="655" type="line"/>
      <point x="1270" y="765" type="line"/>
      <point x="1748" y="1162" type="line" smooth="yes"/>
      <point x="1776" y="1189"/>
      <point x="1804" y="1200"/>
      <point x="1843" y="1200" type="curve" smooth="yes"/>
      <point x="4870" y="1200" type="line" smooth="yes"/>
      <point x="4929" y="1200"/>
      <point x="4961" y="1168"/>
      <point x="4961" y="1109" type="curve" smooth="yes"/>
      <point x="4961" y="529" type="line" smooth="yes"/>
      <point x="4961" y="484"/>
      <point x="4955" y="446"/>
      <point x="4919" y="416" type="curve" smooth="yes"/>
      <point x="4386" y="52" type="line" smooth="yes"/>
      <point x="4342" y="16"/>
      <point x="4304" y="0"/>
      <point x="4257" y="0" type="curve" smooth="yes"/>
      <point x="586" y="0" type="line" smooth="yes"/>
      <point x="527" y="0"/>
      <point x="495" y="32"/>
    </contour>
  </outline>
</glyph>
<glyph name="c" format="2">
  <advance width="4269"/>
  <unicode hex="0063"/>
  <anchor x="3290" y="0" name="bottom"/>
  <anchor x="3282" y="1200" name="top"/>
  <outline>
    <contour>
      <point x="465" y="0" type="curve" smooth="yes"/>
      <point x="3962" y="0" type="line"/>
      <point x="3962" y="402" type="line"/>
      <point x="1282" y="402" type="line" smooth="yes"/>
      <point x="1282" y="402"/>
      <point x="1281" y="403"/>
      <point x="1281" y="403" type="curve" smooth="yes"/>
      <point x="1281" y="447" type="line" smooth="yes"/>
      <point x="1281" y="447"/>
      <point x="1280" y="449"/>
      <point x="1276" y="449" type="curve" smooth="yes"/>
      <point x="1540" y="739" type="line" smooth="yes"/>
      <point x="1566" y="779"/>
      <point x="1596" y="798"/>
      <point x="1645" y="798" type="curve" smooth="yes"/>
      <point x="3962" y="798" type="line"/>
      <point x="3962" y="1200" type="line"/>
      <point x="774" y="1200" type="line" smooth="yes"/>
      <point x="726" y="1200"/>
      <point x="694" y="1183"/>
      <point x="666" y="1145" type="curve" smooth="yes"/>
      <point x="412" y="922" type="line" smooth="yes"/>
      <point x="386" y="888"/>
      <point x="376" y="860"/>
      <point x="376" y="816" type="curve" smooth="yes"/>
      <point x="376" y="89" type="line" smooth="yes"/>
      <point x="376" y="32"/>
      <point x="407" y="0"/>
    </contour>
  </outline>
</glyph>
<glyph name="e" format="2">
  <advance width="4926"/>
  <unicode hex="0065"/>
  <anchor x="2961" y="0" name="bottom"/>
  <anchor x="4530" y="10" name="ogonek"/>
  <anchor x="2961" y="1200" name="top"/>
  <outline>
    <contour>
      <point x="461" y="0" type="curve" smooth="yes"/>
      <point x="4661" y="0" type="line"/>
      <point x="4661" y="331" type="line"/>
      <point x="1336" y="331" type="line" smooth="yes"/>
      <point x="1331" y="331"/>
      <point x="1332" y="329"/>
      <point x="1332" y="329" type="curve" smooth="yes"/>
      <point x="1332" y="580" type="line" smooth="yes"/>
      <point x="1332" y="592"/>
      <point x="1338" y="602"/>
      <point x="1352" y="612" type="curve" smooth="yes"/>
      <point x="1577" y="776" type="line" smooth="yes"/>
      <point x="1607" y="798"/>
      <point x="1628" y="812"/>
      <point x="1664" y="812" type="curve" smooth="yes"/>
      <point x="3718" y="812" type="line" smooth="yes"/>
      <point x="3717" y="812"/>
      <point x="3716" y="814"/>
      <point x="3716" y="818" type="curve" smooth="yes"/>
      <point x="3716" y="765" type="line" smooth="yes"/>
      <point x="3716" y="768"/>
      <point x="3720" y="770"/>
      <point x="3709" y="770" type="curve" smooth="yes"/>
      <point x="1331" y="759" type="line"/>
      <point x="1331" y="368" type="line"/>
      <point x="4578" y="368" type="line" smooth="yes"/>
      <point x="4632" y="368"/>
      <point x="4664" y="375"/>
      <point x="4664" y="430" type="curve" smooth="yes"/>
      <point x="4664" y="1115" type="line" smooth="yes"/>
      <point x="4664" y="1169"/>
      <point x="4633" y="1200"/>
      <point x="4578" y="1200" type="curve" smooth="yes"/>
      <point x="996" y="1200" type="line" smooth="yes"/>
      <point x="952" y="1200"/>
      <point x="925" y="1183"/>
      <point x="890" y="1154" type="curve" smooth="yes"/>
      <point x="418" y="780" type="line" smooth="yes"/>
      <point x="385" y="752"/>
      <point x="376" y="743"/>
      <point x="376" y="699" type="curve" smooth="yes"/>
      <point x="376" y="85" type="line" smooth="yes"/>
      <point x="376" y="31"/>
      <point x="406" y="0"/>
    </contour>
  </outline>
</glyph>
<glyph name="g" format="2">
  <advance width="5310"/>
  <unicode hex="0067"/>
  <anchor x="2592" y="-300" name="bottom"/>
  <anchor x="2592" y="1200" name="top"/>
  <outline>
    <contour>
      <point x="1638" y="-300" type="line"/>
      <point x="4196" y="-300" type="line" smooth="yes"/>
      <point x="4238" y="-300"/>
      <point x="4266" y="-284"/>
      <point x="4305" y="-256" type="curve" smooth="yes"/>
      <point x="4890" y="184" type="line" smooth="yes"/>
      <point x="4923" y="208"/>
      <point x="4934" y="241"/>
      <point x="4934" y="299" type="curve" smooth="yes"/>
      <point x="4934" y="1115" type="line" smooth="yes"/>
      <point x="4934" y="1170"/>
      <point x="4904" y="1200"/>
      <point x="4849" y="1200" type="curve" smooth="yes"/>
      <point x="1011" y="1200" type="line" smooth="yes"/>
      <point x="969" y="1200"/>
      <point x="939" y="1190"/>
      <point x="905" y="1160" type="curve" smooth="yes"/>
      <point x="430" y="785" type="line" smooth="yes"/>
      <point x="399" y="757"/>
      <point x="382" y="723"/>
      <point x="382" y="680" type="curve" smooth="yes"/>
      <point x="382" y="174" type="line" smooth="yes"/>
      <point x="382" y="120"/>
      <point x="413" y="89"/>
      <point x="468" y="89" type="curve" smooth="yes"/>
      <point x="3662" y="89" type="line" smooth="yes"/>
      <point x="3694" y="89"/>
      <point x="3719" y="97"/>
      <point x="3747" y="119" type="curve" smooth="yes"/>
      <point x="4208" y="484" type="line"/>
      <point x="3978" y="484" type="line"/>
      <point x="3978" y="374" type="line" smooth="yes"/>
      <point x="3978" y="340"/>
      <point x="3967" y="312"/>
      <point x="3939" y="292" type="curve" smooth="yes"/>
      <point x="3701" y="131" type="line" smooth="yes"/>
      <point x="3682" y="119"/>
      <point x="3625" y="102"/>
      <point x="3585" y="102" type="curve" smooth="yes"/>
      <point x="1638" y="102" type="line"/>
    </contour>
    <contour>
      <point x="1318" y="507" type="line" smooth="yes"/>
      <point x="1330" y="507"/>
      <point x="1338" y="500"/>
      <point x="1338" y="487" type="curve" smooth="yes"/>
      <point x="1338" y="662" type="line" smooth="yes"/>
      <point x="1338" y="652"/>
      <point x="1336" y="644"/>
      <point x="1329" y="636" type="curve" smooth="yes"/>
      <point x="1500" y="769" type="line" smooth="yes"/>
      <point x="1527" y="789"/>
      <point x="1551" y="798"/>
      <point x="1584" y="798" type="curve" smooth="yes"/>
      <point x="3999" y="798" type="line" smooth="yes"/>
      <point x="3985" y="798"/>
      <point x="3978" y="805"/>
      <point x="3978" y="818" type="curve" smooth="yes"/>
      <point x="3978" y="655" type="line"/>
      <point x="3808" y="534" type="line" smooth="yes"/>
      <point x="3780" y="514"/>
      <point x="3756" y="507"/>
      <point x="3723" y="507" type="curve" smooth="yes"/>
    </contour>
  </outline>
</glyph>
<glyph name="h" format="2">
  <advance width="5188"/>
  <unicode hex="0068"/>
  <anchor x="3160" y="0" name="bottom"/>
  <anchor x="3160" y="850" name="center"/>
  <anchor x="3160" y="1700" name="top"/>
  <outline>
    <contour>
      <point x="495" y="0" type="line"/>
      <point x="1451" y="0" type="line"/>
      <point x="1451" y="670" type="line"/>
      <point x="1597" y="758" type="line" smooth="yes"/>
      <point x="1626" y="781"/>
      <point x="1648" y="796"/>
      <point x="1686" y="796" type="curve" smooth="yes"/>
      <point x="3758" y="796" type="line" smooth="yes"/>
      <point x="3804" y="796"/>
      <point x="3829" y="772"/>
      <point x="3829" y="725" type="curve" smooth="yes"/>
      <point x="3829" y="0" type="line"/>
      <point x="4785" y="0" type="line"/>
      <point x="4785" y="1115" type="line" smooth="yes"/>
      <point x="4785" y="1169"/>
      <point x="4755" y="1200"/>
      <point x="4700" y="1200" type="curve" smooth="yes"/>
      <point x="1772" y="1200" type="line" smooth="yes"/>
      <point x="1734" y="1200"/>
      <point x="1712" y="1187"/>
      <point x="1682" y="1161" type="curve" smooth="yes"/>
      <point x="1216" y="802" type="line"/>
      <point x="1451" y="802" type="line"/>
      <point x="1451" y="1560" type="line"/>
      <point x="495" y="1560" type="line"/>
    </contour>
  </outline>
</glyph>
<glyph name="j" format="2">
  <advance width="3440"/>
  <unicode hex="006A"/>
  <outline>
    <contour>
      <point x="-176" y="-300" type="line"/>
      <point x="2421" y="-300" type="line" smooth="yes"/>
      <point x="2464" y="-300"/>
      <point x="2493" y="-280"/>
      <point x="2527" y="-250" type="curve" smooth="yes"/>
      <point x="2992" y="129" type="line" smooth="yes"/>
      <point x="3025" y="157"/>
      <point x="3033" y="190"/>
      <point x="3033" y="234" type="curve" smooth="yes"/>
      <point x="3033" y="1200" type="line"/>
      <point x="2077" y="1200" type="line"/>
      <point x="2077" y="309" type="line" smooth="yes"/>
      <point x="2077" y="278"/>
      <point x="2068" y="249"/>
      <point x="2040" y="225" type="curve" smooth="yes"/>
      <point x="1919" y="139" type="line" smooth="yes"/>
      <point x="1893" y="117"/>
      <point x="1867" y="102"/>
      <point x="1832" y="102" type="curve" smooth="yes"/>
      <point x="-176" y="102" type="line"/>
    </contour>
    <contour>
      <point x="2077" y="1232" type="line"/>
      <point x="3033" y="1232" type="line"/>
      <point x="3033" y="1576" type="line"/>
      <point x="2077" y="1576" type="line"/>
    </contour>
  </outline>
</glyph>
<glyph name="q" format="2">
  <advance width="5344"/>
  <unicode hex="0071"/>
  <anchor x="2082" y="-300" name="bottom"/>
  <anchor x="2082" y="1200" name="top"/>
  <outline>
    <contour>
      <point x="4848" y="1109" type="curve" smooth="yes"/>
      <point x="4848" y="-300" type="line"/>
      <point x="3892" y="-300" type="line"/>
      <point x="3892" y="816" type="line" smooth="yes"/>
      <point x="3892" y="805"/>
      <point x="3898" y="798"/>
      <point x="3911" y="798" type="curve" smooth="yes"/>
      <point x="1649" y="798" type="line" smooth="yes"/>
      <point x="1659" y="798"/>
      <point x="1668" y="801"/>
      <point x="1671" y="806" type="curve" smooth="yes"/>
      <point x="1336" y="595" type="line" smooth="yes"/>
      <point x="1340" y="600"/>
      <point x="1338" y="603"/>
      <point x="1338" y="609" type="curve" smooth="yes"/>
      <point x="1338" y="385" type="line" smooth="yes"/>
      <point x="1338" y="397"/>
      <point x="1333" y="402"/>
      <point x="1320" y="402" type="curve" smooth="yes"/>
      <point x="3709" y="402" type="line" smooth="yes"/>
      <point x="3701" y="402"/>
      <point x="3699" y="398"/>
      <point x="3693" y="395" type="curve" smooth="yes"/>
      <point x="3893" y="545" type="line"/>
      <point x="4073" y="435" type="line"/>
      <point x="3596" y="38" type="line" smooth="yes"/>
      <point x="3566" y="9"/>
      <point x="3539" y="0"/>
      <point x="3500" y="0" type="curve" smooth="yes"/>
      <point x="474" y="0" type="line" smooth="yes"/>
      <point x="415" y="0"/>
      <point x="382" y="32"/>
      <point x="382" y="91" type="curve" smooth="yes"/>
      <point x="382" y="671" type="line" smooth="yes"/>
      <point x="382" y="716"/>
      <point x="390" y="755"/>
      <point x="424" y="784" type="curve" smooth="yes"/>
      <point x="958" y="1148" type="line" smooth="yes"/>
      <point x="1000" y="1182"/>
      <point x="1040" y="1200"/>
      <point x="1087" y="1200" type="curve" smooth="yes"/>
      <point x="4757" y="1200" type="line" smooth="yes"/>
      <point x="4816" y="1200"/>
      <point x="4848" y="1168"/>
    </contour>
  </outline>
</glyph>
<glyph name="t" format="2">
  <advance width="4196"/>
  <unicode hex="0074"/>
  <anchor x="2157" y="0" name="bottom"/>
  <anchor x="2157" y="600" name="center"/>
  <anchor x="2157" y="1200" name="top"/>
  <anchor x="3632" y="1700" name="topright"/>
  <outline>
    <contour>
      <point x="582" y="0" type="curve" smooth="yes"/>
      <point x="3865" y="0" type="line"/>
      <point x="3865" y="402" type="line"/>
      <point x="1535" y="402" type="line" smooth="yes"/>
      <point x="1479" y="402"/>
      <point x="1451" y="429"/>
      <point x="1451" y="486" type="curve" smooth="yes"/>
      <point x="1450" y="1500" type="line"/>
      <point x="495" y="1500" type="line" smooth="yes"/>
      <point x="495" y="87" type="line" smooth="yes"/>
      <point x="495" y="32"/>
      <point x="526" y="0"/>
    </contour>
    <contour>
      <point x="1450" y="798" type="line"/>
      <point x="3866" y="798" type="line"/>
      <point x="3866" y="1200" type="line"/>
      <point x="1450" y="1200" type="line"/>
    </contour>
  </outline>
</glyph>
<glyph name="w" format="2">
  <advance width="7932"/>
  <unicode hex="0077"/>
  <anchor x="3511" y="0" name="bottom"/>
  <anchor x="3511" y="1199" name="top"/>
  <outline>
    <contour>
      <point x="490" y="-1" type="curve" smooth="yes"/>
      <point x="3004" y="-1" type="line" smooth="yes"/>
      <point x="3044" y="-1"/>
      <point x="3059" y="24"/>
      <point x="3091" y="50" type="curve" smooth="yes"/>
      <point x="3692" y="566" type="line"/>
      <point x="3468" y="566" type="line"/>
      <point x="3468" y="93" type="line" smooth="yes"/>
      <point x="3468" y="32"/>
      <point x="3500" y="-1"/>
      <point x="3580" y="-1" type="curve" smooth="yes"/>
      <point x="6872" y="-1" type="line" smooth="yes"/>
      <point x="6915" y="-1"/>
      <point x="6944" y="17"/>
      <point x="6982" y="51" type="curve" smooth="yes"/>
      <point x="7445" y="374" type="line" smooth="yes"/>
      <point x="7480" y="405"/>
      <point x="7489" y="436"/>
      <point x="7489" y="497" type="curve" smooth="yes"/>
      <point x="7489" y="1199" type="line"/>
      <point x="6533" y="1199" type="line"/>
      <point x="6533" y="620" type="line" smooth="yes"/>
      <point x="6533" y="584"/>
      <point x="6524" y="552"/>
      <point x="6497" y="529" type="curve" smooth="yes"/>
      <point x="6375" y="441" type="line" smooth="yes"/>
      <point x="6348" y="418"/>
      <point x="6322" y="401"/>
      <point x="6284" y="401" type="curve" smooth="yes"/>
      <point x="4498" y="401" type="line" smooth="yes"/>
      <point x="4452" y="401"/>
      <point x="4424" y="428"/>
      <point x="4424" y="475" type="curve" smooth="yes"/>
      <point x="4424" y="1199" type="line"/>
      <point x="3468" y="1199" type="line"/>
      <point x="3468" y="635" type="line"/>
      <point x="3263" y="445" type="line" smooth="yes"/>
      <point x="3234" y="420"/>
      <point x="3214" y="401"/>
      <point x="3175" y="401" type="curve" smooth="yes"/>
      <point x="1433" y="401" type="line" smooth="yes"/>
      <point x="1387" y="401"/>
      <point x="1359" y="428"/>
      <point x="1359" y="475" type="curve" smooth="yes"/>
      <point x="1359" y="1199" type="line"/>
      <point x="403" y="1199" type="line"/>
      <point x="403" y="87" type="line" smooth="yes"/>
      <point x="403" y="31"/>
      <point x="434" y="-1"/>
    </contour>
  </outline>
</glyph>
<glyph name="braceleft" format="2">
  <advance width="2397"/>
  <unicode hex="007B"/>
  <outline>
    <contour>
      <point x="376" y="-200" type="line"/>
      <point x="2270" y="-200" type="line"/>
      <point x="2270" y="410" type="line"/>
      <point x="1306" y="410" type="line"/>
      <point x="1306" y="507" type="line"/>
      <point x="975" y="787" type="line"/>
      <point x="975" y="813" type="line"/>
      <point x="1306" y="1093" type="line"/>
      <point x="1306" y="1190" type="line"/>
      <point x="2275" y="1190" type="line"/>
      <point x="2275" y="1800" type="line"/>
      <point x="376" y="1800" type="line"/>
      <point x="376" y="1094" type="line"/>
      <point x="45" y="813" type="line"/>
      <point x="45" y="787" type="line"/>
      <point x="376" y="506" type="line"/>
    </contour>
  </outline>
</glyph>
